<svg width="44" height="44" viewBox="0 0 44 44" fill="none" xmlns="http://www.w3.org/2000/svg">
<path d="M33.2934 7.77324H30.0667V6.08657C30.0667 5.63924 29.8967 5.21023 29.5942 4.89392C29.2916 4.5776 28.8812 4.3999 28.4534 4.3999C28.0255 4.3999 27.6151 4.5776 27.3126 4.89392C27.01 5.21023 26.84 5.63924 26.84 6.08657V7.77324H17.16V6.08657C17.16 5.63924 16.9901 5.21023 16.6875 4.89392C16.3849 4.5776 15.9746 4.3999 15.5467 4.3999C15.1188 4.3999 14.7085 4.5776 14.4059 4.89392C14.1033 5.21023 13.9334 5.63924 13.9334 6.08657V7.77324H10.7067C9.42305 7.77324 8.19198 8.30634 7.2843 9.25528C6.37663 10.2042 5.8667 11.4912 5.8667 12.8332V33.0732C5.8667 34.4152 6.37663 35.7023 7.2843 36.6512C8.19198 37.6001 9.42305 38.1332 10.7067 38.1332H33.2934C34.577 38.1332 35.8081 37.6001 36.7158 36.6512C37.6234 35.7023 38.1334 34.4152 38.1334 33.0732V12.8332C38.1334 11.4912 37.6234 10.2042 36.7158 9.25528C35.8081 8.30634 34.577 7.77324 33.2934 7.77324ZM34.9067 33.0732C34.9067 33.5206 34.7367 33.9496 34.4342 34.2659C34.1316 34.5822 33.7212 34.7599 33.2934 34.7599H10.7067C10.2788 34.7599 9.86846 34.5822 9.5659 34.2659C9.26334 33.9496 9.09337 33.5206 9.09337 33.0732V21.2666H34.9067V33.0732ZM34.9067 17.8932H9.09337V12.8332C9.09337 12.3859 9.26334 11.9569 9.5659 11.6406C9.86846 11.3243 10.2788 11.1466 10.7067 11.1466H13.9334V12.8332C13.9334 13.2806 14.1033 13.7096 14.4059 14.0259C14.7085 14.3422 15.1188 14.5199 15.5467 14.5199C15.9746 14.5199 16.3849 14.3422 16.6875 14.0259C16.9901 13.7096 17.16 13.2806 17.16 12.8332V11.1466H26.84V12.8332C26.84 13.2806 27.01 13.7096 27.3126 14.0259C27.6151 14.3422 28.0255 14.5199 28.4534 14.5199C28.8812 14.5199 29.2916 14.3422 29.5942 14.0259C29.8967 13.7096 30.0667 13.2806 30.0667 12.8332V11.1466H33.2934C33.7212 11.1466 34.1316 11.3243 34.4342 11.6406C34.7367 11.9569 34.9067 12.3859 34.9067 12.8332V17.8932Z" fill="black"/>
</svg>
