<svg width="44" height="44" viewBox="0 0 44 44" fill="none" xmlns="http://www.w3.org/2000/svg">
<mask id="path-1-inside-1_1140_5326" fill="white">
<path d="M14.3958 11.8032C16.0004 11.8032 17.5392 12.4406 18.6738 13.5752C19.8084 14.7098 20.4458 16.2486 20.4458 17.8532C20.4458 18.5031 20.3352 19.1272 20.145 19.7149C21.0577 19.9567 21.8511 20.5223 22.3773 21.3062C22.9035 22.09 23.1264 23.0386 23.0045 23.9748C22.8825 24.911 22.4241 25.7709 21.7147 26.3938C21.0053 27.0168 20.0935 27.3604 19.1494 27.3603H18.9402C19.5954 30.4545 21.5331 32.5409 22.6376 33.5106C23.3585 34.1433 23.903 35.0974 23.903 36.1933L23.8857 36.5287C23.8086 37.2753 23.4768 37.9727 22.9461 38.5034C22.4153 39.0342 21.7179 39.366 20.9713 39.4431L20.636 39.4603H8.15567C7.34727 39.4603 6.56759 39.1606 5.96734 38.6191C5.3671 38.0776 4.98894 37.3328 4.90596 36.5287L4.88867 36.1933C4.88867 35.0974 5.43317 34.1433 6.15399 33.5106C7.26027 32.5409 9.19627 30.4545 9.85313 27.3603H9.64224C8.69984 27.3576 7.79048 27.0128 7.08321 26.3899C6.37594 25.7671 5.91887 24.9087 5.79696 23.9742C5.67505 23.0397 5.89659 22.0927 6.42041 21.3093C6.94423 20.5259 7.73469 19.9593 8.64486 19.7149C8.44849 19.1138 8.34759 18.4856 8.34581 17.8532C8.34581 16.2486 8.98322 14.7098 10.1178 13.5752C11.2524 12.4406 12.7913 11.8032 14.3958 11.8032ZM25.1648 4.88892C26.069 4.88867 26.9447 5.20483 27.6401 5.78259C28.2731 5.20806 29.0973 4.88978 29.9521 4.88978C30.8069 4.88978 31.6311 5.20806 32.2641 5.78259C32.96 5.20445 33.8364 4.88827 34.7411 4.88892H35.1387L35.4031 4.90275C36.0416 4.96821 36.6331 5.26816 37.0632 5.74456C37.4933 6.22096 37.7315 6.83995 37.7315 7.48177V13.0996C37.7314 14.1934 37.3542 15.2537 36.6633 16.1017C35.9724 16.9497 35.0103 17.5335 33.939 17.7547C34.5233 26.7225 37.6641 32.1191 38.779 33.7768C39.187 34.3818 39.4601 35.1251 39.4601 35.9323L39.4428 36.2936C39.3599 37.1005 39.0015 37.8541 38.4278 38.4274C37.8541 39.0008 37.1003 39.3589 36.2934 39.4413L35.9321 39.4603H24.4094C25.03 38.7447 25.4466 37.8528 25.5814 36.8675H35.9321L36.1188 36.8502C36.2988 36.8136 36.4641 36.7248 36.5938 36.5947C36.7236 36.4646 36.8121 36.2992 36.8482 36.119L36.8672 35.9323C36.8601 35.6776 36.777 35.4308 36.6287 35.2236C35.2562 33.1839 31.6642 26.904 31.2857 16.6034C31.2794 16.4295 31.3083 16.256 31.3705 16.0934C31.4327 15.9308 31.5271 15.7824 31.6479 15.657C31.7687 15.5317 31.9136 15.432 32.0738 15.3638C32.234 15.2957 32.4063 15.2605 32.5804 15.2603H32.978C34.1707 15.2603 35.1387 14.2923 35.1387 13.0996V7.48177H34.7411C34.402 7.4817 34.0764 7.61448 33.834 7.85166C33.5917 8.08884 33.4519 8.41153 33.4447 8.75055L33.4101 10.531C33.4069 10.8748 33.2672 11.2033 33.0218 11.4441C32.7764 11.685 32.4454 11.8185 32.1016 11.8153C31.7577 11.8121 31.4293 11.6724 31.1884 11.427C30.9475 11.1816 30.814 10.8506 30.8172 10.5068V8.34606C30.8172 8.11684 30.7262 7.897 30.5641 7.73492C30.402 7.57283 30.1822 7.48177 29.953 7.48177C29.7237 7.48177 29.5039 7.57283 29.3418 7.73492C29.1797 7.897 29.0887 8.11684 29.0887 8.34606V10.5068L29.0818 10.6381C29.0483 10.9667 28.8908 11.2701 28.6413 11.4864C28.3918 11.7028 28.0691 11.8157 27.7392 11.8023C27.4092 11.7888 27.0968 11.65 26.8658 11.414C26.6347 11.1781 26.5024 10.8629 26.4958 10.5327L26.4612 8.75227C26.4545 8.41295 26.3149 8.08982 26.0725 7.85228C25.8301 7.61473 25.5042 7.48171 25.1648 7.48177H24.7672V13.0996C24.7672 14.2923 25.7352 15.2603 26.928 15.2603H27.3255C27.4998 15.2602 27.6723 15.2952 27.8327 15.3633C27.9931 15.4313 28.1381 15.531 28.2591 15.6564C28.3802 15.7818 28.4747 15.9303 28.537 16.093C28.5993 16.2557 28.6282 16.4293 28.622 16.6034C28.3316 24.4563 26.1726 29.9722 24.5564 33.0543C24.3254 32.7482 24.0643 32.4661 23.7768 32.2124C23.3742 31.8582 22.9997 31.4733 22.6567 31.0612C23.979 28.3197 25.5676 23.8669 25.9651 17.7547C24.8943 17.5332 23.9325 16.9492 23.242 16.1013C22.5514 15.2533 22.1744 14.1932 22.1744 13.0996V7.48177C22.1744 6.79411 22.4476 6.1346 22.9338 5.64835C23.4201 5.16209 24.0796 4.88892 24.7672 4.88892H25.1648ZM14.3958 14.3961C13.7401 14.3959 13.0978 14.5823 12.544 14.9334C11.9901 15.2845 11.5476 15.7859 11.268 16.379C10.9883 16.9721 10.8832 17.6326 10.9647 18.2832C11.0463 18.9339 11.3112 19.5479 11.7286 20.0537C11.8849 20.2433 11.9841 20.4734 12.0146 20.7172C12.0451 20.961 12.0057 21.2084 11.901 21.4307C11.7963 21.653 11.6306 21.8409 11.4232 21.9726C11.2158 22.1043 10.9752 22.1744 10.7295 22.1746H9.64224C9.29841 22.1746 8.96866 22.3112 8.72553 22.5543C8.4824 22.7975 8.34581 23.1272 8.34581 23.4711C8.34581 23.8149 8.4824 24.1446 8.72553 24.3878C8.96866 24.6309 9.29841 24.7675 9.64224 24.7675H11.3397C11.5178 24.7675 11.694 24.8042 11.8573 24.8753C12.0206 24.9465 12.1675 25.0505 12.2888 25.1809C12.4101 25.3113 12.5032 25.4653 12.5624 25.6332C12.6216 25.8012 12.6455 25.9796 12.6327 26.1573C12.2818 31.0059 9.35357 34.1536 7.867 35.457C7.59907 35.6938 7.48153 35.9738 7.48153 36.1933L7.49536 36.3299C7.52678 36.4818 7.60961 36.6182 7.7299 36.7161C7.85019 36.8141 8.00056 36.8675 8.15567 36.8675H20.636L20.7725 36.8537C20.9014 36.827 21.0197 36.7632 21.1128 36.6702C21.2058 36.5771 21.2696 36.4588 21.2963 36.3299L21.3101 36.1933C21.3101 35.9738 21.1926 35.6921 20.9246 35.4587C19.4381 34.1536 16.5099 31.0059 16.159 26.1573C16.1461 25.9796 16.1701 25.8012 16.2292 25.6332C16.2884 25.4653 16.3815 25.3113 16.5028 25.1809C16.6242 25.0505 16.771 24.9465 16.9343 24.8753C17.0976 24.8042 17.2738 24.7675 17.4519 24.7675H19.1494L19.2825 24.7606C19.6129 24.7263 19.9176 24.5665 20.1336 24.3142C20.3496 24.0618 20.4606 23.7362 20.4435 23.4044C20.4264 23.0727 20.2826 22.7601 20.0418 22.5313C19.801 22.3025 19.4816 22.1748 19.1494 22.1746H18.0621C17.8164 22.1744 17.5759 22.1043 17.3684 21.9726C17.161 21.8409 16.9953 21.653 16.8906 21.4307C16.7859 21.2084 16.7465 20.961 16.7771 20.7172C16.8076 20.4734 16.9067 20.2433 17.063 20.0537C17.4804 19.5479 17.7453 18.9339 17.8269 18.2832C17.9084 17.6326 17.8033 16.9721 17.5237 16.379C17.244 15.7859 16.8015 15.2845 16.2477 14.9334C15.6938 14.5823 15.0516 14.3959 14.3958 14.3961Z"/>
</mask>
<path d="M14.3958 11.8032C16.0004 11.8032 17.5392 12.4406 18.6738 13.5752C19.8084 14.7098 20.4458 16.2486 20.4458 17.8532C20.4458 18.5031 20.3352 19.1272 20.145 19.7149C21.0577 19.9567 21.8511 20.5223 22.3773 21.3062C22.9035 22.09 23.1264 23.0386 23.0045 23.9748C22.8825 24.911 22.4241 25.7709 21.7147 26.3938C21.0053 27.0168 20.0935 27.3604 19.1494 27.3603H18.9402C19.5954 30.4545 21.5331 32.5409 22.6376 33.5106C23.3585 34.1433 23.903 35.0974 23.903 36.1933L23.8857 36.5287C23.8086 37.2753 23.4768 37.9727 22.9461 38.5034C22.4153 39.0342 21.7179 39.366 20.9713 39.4431L20.636 39.4603H8.15567C7.34727 39.4603 6.56759 39.1606 5.96734 38.6191C5.3671 38.0776 4.98894 37.3328 4.90596 36.5287L4.88867 36.1933C4.88867 35.0974 5.43317 34.1433 6.15399 33.5106C7.26027 32.5409 9.19627 30.4545 9.85313 27.3603H9.64224C8.69984 27.3576 7.79048 27.0128 7.08321 26.3899C6.37594 25.7671 5.91887 24.9087 5.79696 23.9742C5.67505 23.0397 5.89659 22.0927 6.42041 21.3093C6.94423 20.5259 7.73469 19.9593 8.64486 19.7149C8.44849 19.1138 8.34759 18.4856 8.34581 17.8532C8.34581 16.2486 8.98322 14.7098 10.1178 13.5752C11.2524 12.4406 12.7913 11.8032 14.3958 11.8032ZM25.1648 4.88892C26.069 4.88867 26.9447 5.20483 27.6401 5.78259C28.2731 5.20806 29.0973 4.88978 29.9521 4.88978C30.8069 4.88978 31.6311 5.20806 32.2641 5.78259C32.96 5.20445 33.8364 4.88827 34.7411 4.88892H35.1387L35.4031 4.90275C36.0416 4.96821 36.6331 5.26816 37.0632 5.74456C37.4933 6.22096 37.7315 6.83995 37.7315 7.48177V13.0996C37.7314 14.1934 37.3542 15.2537 36.6633 16.1017C35.9724 16.9497 35.0103 17.5335 33.939 17.7547C34.5233 26.7225 37.6641 32.1191 38.779 33.7768C39.187 34.3818 39.4601 35.1251 39.4601 35.9323L39.4428 36.2936C39.3599 37.1005 39.0015 37.8541 38.4278 38.4274C37.8541 39.0008 37.1003 39.3589 36.2934 39.4413L35.9321 39.4603H24.4094C25.03 38.7447 25.4466 37.8528 25.5814 36.8675H35.9321L36.1188 36.8502C36.2988 36.8136 36.4641 36.7248 36.5938 36.5947C36.7236 36.4646 36.8121 36.2992 36.8482 36.119L36.8672 35.9323C36.8601 35.6776 36.777 35.4308 36.6287 35.2236C35.2562 33.1839 31.6642 26.904 31.2857 16.6034C31.2794 16.4295 31.3083 16.256 31.3705 16.0934C31.4327 15.9308 31.5271 15.7824 31.6479 15.657C31.7687 15.5317 31.9136 15.432 32.0738 15.3638C32.234 15.2957 32.4063 15.2605 32.5804 15.2603H32.978C34.1707 15.2603 35.1387 14.2923 35.1387 13.0996V7.48177H34.7411C34.402 7.4817 34.0764 7.61448 33.834 7.85166C33.5917 8.08884 33.4519 8.41153 33.4447 8.75055L33.4101 10.531C33.4069 10.8748 33.2672 11.2033 33.0218 11.4441C32.7764 11.685 32.4454 11.8185 32.1016 11.8153C31.7577 11.8121 31.4293 11.6724 31.1884 11.427C30.9475 11.1816 30.814 10.8506 30.8172 10.5068V8.34606C30.8172 8.11684 30.7262 7.897 30.5641 7.73492C30.402 7.57283 30.1822 7.48177 29.953 7.48177C29.7237 7.48177 29.5039 7.57283 29.3418 7.73492C29.1797 7.897 29.0887 8.11684 29.0887 8.34606V10.5068L29.0818 10.6381C29.0483 10.9667 28.8908 11.2701 28.6413 11.4864C28.3918 11.7028 28.0691 11.8157 27.7392 11.8023C27.4092 11.7888 27.0968 11.65 26.8658 11.414C26.6347 11.1781 26.5024 10.8629 26.4958 10.5327L26.4612 8.75227C26.4545 8.41295 26.3149 8.08982 26.0725 7.85228C25.8301 7.61473 25.5042 7.48171 25.1648 7.48177H24.7672V13.0996C24.7672 14.2923 25.7352 15.2603 26.928 15.2603H27.3255C27.4998 15.2602 27.6723 15.2952 27.8327 15.3633C27.9931 15.4313 28.1381 15.531 28.2591 15.6564C28.3802 15.7818 28.4747 15.9303 28.537 16.093C28.5993 16.2557 28.6282 16.4293 28.622 16.6034C28.3316 24.4563 26.1726 29.9722 24.5564 33.0543C24.3254 32.7482 24.0643 32.4661 23.7768 32.2124C23.3742 31.8582 22.9997 31.4733 22.6567 31.0612C23.979 28.3197 25.5676 23.8669 25.9651 17.7547C24.8943 17.5332 23.9325 16.9492 23.242 16.1013C22.5514 15.2533 22.1744 14.1932 22.1744 13.0996V7.48177C22.1744 6.79411 22.4476 6.1346 22.9338 5.64835C23.4201 5.16209 24.0796 4.88892 24.7672 4.88892H25.1648ZM14.3958 14.3961C13.7401 14.3959 13.0978 14.5823 12.544 14.9334C11.9901 15.2845 11.5476 15.7859 11.268 16.379C10.9883 16.9721 10.8832 17.6326 10.9647 18.2832C11.0463 18.9339 11.3112 19.5479 11.7286 20.0537C11.8849 20.2433 11.9841 20.4734 12.0146 20.7172C12.0451 20.961 12.0057 21.2084 11.901 21.4307C11.7963 21.653 11.6306 21.8409 11.4232 21.9726C11.2158 22.1043 10.9752 22.1744 10.7295 22.1746H9.64224C9.29841 22.1746 8.96866 22.3112 8.72553 22.5543C8.4824 22.7975 8.34581 23.1272 8.34581 23.4711C8.34581 23.8149 8.4824 24.1446 8.72553 24.3878C8.96866 24.6309 9.29841 24.7675 9.64224 24.7675H11.3397C11.5178 24.7675 11.694 24.8042 11.8573 24.8753C12.0206 24.9465 12.1675 25.0505 12.2888 25.1809C12.4101 25.3113 12.5032 25.4653 12.5624 25.6332C12.6216 25.8012 12.6455 25.9796 12.6327 26.1573C12.2818 31.0059 9.35357 34.1536 7.867 35.457C7.59907 35.6938 7.48153 35.9738 7.48153 36.1933L7.49536 36.3299C7.52678 36.4818 7.60961 36.6182 7.7299 36.7161C7.85019 36.8141 8.00056 36.8675 8.15567 36.8675H20.636L20.7725 36.8537C20.9014 36.827 21.0197 36.7632 21.1128 36.6702C21.2058 36.5771 21.2696 36.4588 21.2963 36.3299L21.3101 36.1933C21.3101 35.9738 21.1926 35.6921 20.9246 35.4587C19.4381 34.1536 16.5099 31.0059 16.159 26.1573C16.1461 25.9796 16.1701 25.8012 16.2292 25.6332C16.2884 25.4653 16.3815 25.3113 16.5028 25.1809C16.6242 25.0505 16.771 24.9465 16.9343 24.8753C17.0976 24.8042 17.2738 24.7675 17.4519 24.7675H19.1494L19.2825 24.7606C19.6129 24.7263 19.9176 24.5665 20.1336 24.3142C20.3496 24.0618 20.4606 23.7362 20.4435 23.4044C20.4264 23.0727 20.2826 22.7601 20.0418 22.5313C19.801 22.3025 19.4816 22.1748 19.1494 22.1746H18.0621C17.8164 22.1744 17.5759 22.1043 17.3684 21.9726C17.161 21.8409 16.9953 21.653 16.8906 21.4307C16.7859 21.2084 16.7465 20.961 16.7771 20.7172C16.8076 20.4734 16.9067 20.2433 17.063 20.0537C17.4804 19.5479 17.7453 18.9339 17.8269 18.2832C17.9084 17.6326 17.8033 16.9721 17.5237 16.379C17.244 15.7859 16.8015 15.2845 16.2477 14.9334C15.6938 14.5823 15.0516 14.3959 14.3958 14.3961Z" fill="black" stroke="black" stroke-width="4" mask="url(#path-1-inside-1_1140_5326)"/>
</svg>
