<svg width="44" height="44" viewBox="0 0 44 44" fill="none" xmlns="http://www.w3.org/2000/svg">
<path fill-rule="evenodd" clip-rule="evenodd" d="M17.4289 5.1972C18.3639 4.38529 19.5605 3.93823 20.7988 3.93823C22.0371 3.93823 23.2338 4.38529 24.1687 5.1972L36.1614 15.6068C36.7171 16.0894 37.1628 16.6858 37.4681 17.3556C37.7734 18.0253 37.9313 18.7529 37.9311 19.489V32.8093C37.9311 34.1725 37.3896 35.4798 36.4257 36.4436C35.4619 37.4075 34.1546 37.949 32.7914 37.949H26.7951C26.1136 37.949 25.4599 37.6783 24.978 37.1963C24.496 36.7144 24.2253 36.0607 24.2253 35.3792V23.7069H17.3724V35.3792C17.3724 36.0607 17.1016 36.7144 16.6197 37.1963C16.1377 37.6783 15.4841 37.949 14.8025 37.949H8.8062C7.44307 37.949 6.13576 37.4075 5.17189 36.4436C4.20801 35.4798 3.6665 34.1725 3.6665 32.8093V19.489C3.6663 18.7529 3.8242 18.0253 4.12953 17.3556C4.43486 16.6858 4.88049 16.0894 5.43627 15.6068L17.4289 5.1972ZM21.9227 7.78418C21.611 7.51323 21.2118 7.36402 20.7988 7.36402C20.3858 7.36402 19.9867 7.51323 19.6749 7.78418L7.68232 18.1955C7.49723 18.3563 7.34884 18.5551 7.24717 18.7782C7.14549 19.0014 7.09291 19.2437 7.09297 19.489V32.8093C7.09297 33.2637 7.27347 33.6995 7.59476 34.0208C7.91605 34.3421 8.35182 34.5226 8.8062 34.5226H13.9459V23.7069C13.9459 22.7982 14.3069 21.9267 14.9495 21.2841C15.5921 20.6415 16.4636 20.2805 17.3724 20.2805H24.2253C25.134 20.2805 26.0056 20.6415 26.6481 21.2841C27.2907 21.9267 27.6517 22.7982 27.6517 23.7069V34.5226H32.7914C33.2458 34.5226 33.6816 34.3421 34.0029 34.0208C34.3242 33.6995 34.5047 33.2637 34.5047 32.8093V19.489C34.5045 19.2436 34.4517 19.0012 34.3497 18.778C34.2477 18.5548 34.099 18.3562 33.9136 18.1955L21.9227 7.78418Z" fill="black"/>
</svg>
