<svg width="21" height="21" viewBox="0 0 21 21" fill="none" xmlns="http://www.w3.org/2000/svg">
<path d="M20.3504 17.8699L15.3758 13.6398C14.8613 13.1764 14.3113 12.9651 13.8677 12.9848C15.1879 11.4368 15.8578 9.43788 15.7369 7.40695C15.616 5.37602 14.7137 3.4707 13.2191 2.09021C11.7245 0.709728 9.75357 -0.0387727 7.71932 0.00154841C5.68507 0.0418695 3.74537 0.867884 2.30665 2.30651C0.867938 3.74513 0.0418721 5.68472 0.0015485 7.71884C-0.0387751 9.75296 0.709773 11.7238 2.09034 13.2183C3.47091 14.7128 5.37636 15.615 7.40741 15.7359C9.43847 15.8568 11.4375 15.187 12.9856 13.8668C12.9646 14.3104 13.1773 14.8604 13.6406 15.3749L17.871 20.3492C18.5955 21.1537 19.7782 21.222 20.5001 20.5001C21.222 19.7782 21.1537 18.5944 20.3491 17.8712L20.3504 17.8699ZM7.87581 13.1239C6.48336 13.1239 5.14793 12.5708 4.16332 11.5863C3.1787 10.6017 2.62555 9.26638 2.62555 7.87401C2.62555 6.48164 3.1787 5.1463 4.16332 4.16174C5.14793 3.17719 6.48336 2.62407 7.87581 2.62407C9.26827 2.62407 10.6037 3.17719 11.5883 4.16174C12.5729 5.1463 13.1261 6.48164 13.1261 7.87401C13.1261 9.26638 12.5729 10.6017 11.5883 11.5863C10.6037 12.5708 9.26827 13.1239 7.87581 13.1239Z" fill="white"/>
</svg>
