<svg width="23" height="21" viewBox="0 0 23 21" fill="none" xmlns="http://www.w3.org/2000/svg">
<path d="M11.4994 17.5927L5.92492 20.8031C5.67866 20.9529 5.4212 21.0171 5.15255 20.9957C4.8839 20.9743 4.64883 20.8887 4.44735 20.7389C4.24586 20.5891 4.08914 20.402 3.97721 20.1777C3.86527 19.9534 3.84288 19.7017 3.91004 19.4226L5.38762 13.3551L0.451166 9.27792C0.227291 9.0853 0.0875924 8.86571 0.0320712 8.61915C-0.0234499 8.3726 -0.00688319 8.13204 0.0817716 7.89747C0.170426 7.6629 0.304752 7.47027 0.484748 7.3196C0.664744 7.16893 0.911007 7.07262 1.22354 7.03067L7.73832 6.48491L10.2569 0.770485C10.3689 0.513656 10.5426 0.321035 10.7781 0.192621C11.0136 0.0642069 11.2541 0 11.4994 0C11.7448 0 11.9852 0.0642069 12.2208 0.192621C12.4563 0.321035 12.63 0.513656 12.7419 0.770485L15.2605 6.48491L21.7753 7.03067C22.0887 7.07348 22.335 7.16979 22.5141 7.3196C22.6932 7.46942 22.8275 7.66204 22.9171 7.89747C23.0066 8.13289 23.0236 8.37388 22.9681 8.62044C22.9126 8.86699 22.7725 9.08615 22.5477 9.27792L17.6112 13.3551L19.0888 19.4226C19.156 19.7009 19.1336 19.9526 19.0216 20.1777C18.9097 20.4029 18.753 20.5899 18.5515 20.7389C18.35 20.8878 18.115 20.9734 17.8463 20.9957C17.5777 21.018 17.3202 20.9538 17.0739 20.8031L11.4994 17.5927Z" fill="#1F1F1F"/>
</svg>
